<svg width="95" height="18" viewBox="0 0 95 18" fill="none" xmlns="http://www.w3.org/2000/svg">
<path id="logo" d="M11.096 14L7.316 9.716C9.26 9.284 10.484 7.862 10.484 5.882C10.484 3.524 8.756 1.94 6.146 1.94H0.044V14H3.014V9.86H3.878L7.514 14H11.096ZM3.014 7.376V4.478H5.822C6.884 4.478 7.568 5.054 7.568 5.918C7.568 6.8 6.884 7.376 5.822 7.376H3.014ZM20.6949 9.482C20.6409 6.53 18.5889 4.694 16.0329 4.694C13.4049 4.694 11.2449 6.638 11.2449 9.482C11.2449 12.344 13.4049 14.27 16.0149 14.27C18.0849 14.27 19.7229 13.352 20.4969 11.444L17.9409 10.922C17.4549 11.804 16.6809 11.966 16.0149 11.966C15.0429 11.966 14.3049 11.3 14.0709 10.22H20.6949V9.482ZM16.0329 7.034C16.8609 7.034 17.5809 7.484 17.8509 8.456H14.1249C14.3949 7.538 15.2229 7.034 16.0329 7.034ZM31.6964 4.964H28.8164V5.684C28.1144 5.054 27.1784 4.694 26.0084 4.694C23.6144 4.694 21.5984 6.638 21.5984 9.482C21.5984 12.344 23.6144 14.27 26.0084 14.27C27.1784 14.27 28.1144 13.91 28.8164 13.28V14H31.6964V4.964ZM26.6024 11.822C25.3424 11.822 24.4244 10.886 24.4244 9.482C24.4244 8.096 25.3424 7.142 26.6024 7.142C27.7724 7.142 28.8164 8.096 28.8164 9.482C28.8164 10.886 27.7724 11.822 26.6024 11.822ZM38.1144 11.75C36.8184 11.75 35.9544 10.814 35.9544 9.482C35.9544 8.168 36.8184 7.214 38.1144 7.214C39.0324 7.214 39.7704 7.718 40.0224 8.816L42.7224 8.168C42.2184 6.044 40.3104 4.694 38.1144 4.694C35.4144 4.694 33.1824 6.638 33.1824 9.482C33.1824 12.344 35.4144 14.27 38.1144 14.27C40.3644 14.27 42.2724 12.884 42.7224 10.742L40.0764 10.166C39.7704 11.264 39.0324 11.75 38.1144 11.75ZM49.8878 4.694C48.7358 4.694 47.7998 5.108 47.0978 5.828V1.04H44.2178V14H47.0978V9.806C47.0978 8.06 47.8358 7.286 48.9518 7.286C49.8878 7.286 50.5178 8.006 50.5178 9.068V14H53.3798V8.456C53.3798 6.188 51.9758 4.694 49.8878 4.694ZM66.3604 1.94H63.4084V6.638H58.3324V1.94H55.3624V14H58.3324V9.23H63.4084V14H66.3604V1.94ZM70.0421 0.661999C69.0701 0.661999 68.3861 1.418 68.3861 2.3C68.3861 3.218 69.0701 3.902 70.0421 3.902C71.0141 3.902 71.7161 3.218 71.7161 2.3C71.7161 1.418 71.0141 0.661999 70.0421 0.661999ZM71.4821 14V4.964H68.6021V14H71.4821ZM83.0199 4.964H80.1939V5.558C79.5459 5 78.6459 4.694 77.4759 4.694C75.1179 4.694 73.1199 6.548 73.1199 9.05C73.1199 11.606 75.1179 13.478 77.4759 13.478C78.6459 13.478 79.5459 13.172 80.1939 12.614V12.866C80.1939 14.288 79.2579 15.062 77.9439 15.062C77.0079 15.062 76.5039 14.756 75.8199 13.946L73.4259 15.242C74.3079 16.7 75.8919 17.42 77.9619 17.42C80.8959 17.42 83.0199 15.89 83.0199 13.1V4.964ZM78.0879 11.12C76.8279 11.12 75.9279 10.256 75.9279 9.05C75.9279 7.844 76.8279 6.998 78.0879 6.998C79.2399 6.998 80.1939 7.844 80.1939 9.05C80.1939 10.256 79.2399 11.12 78.0879 11.12ZM90.7921 4.694C89.6401 4.694 88.7041 5.108 88.0021 5.828V1.04H85.1221V14H88.0021V9.806C88.0021 8.06 88.7401 7.286 89.8561 7.286C90.7921 7.286 91.4221 8.006 91.4221 9.068V14H94.2841V8.456C94.2841 6.188 92.8801 4.694 90.7921 4.694Z" fill="#4D4D4D"/>
</svg>
