<svg width="30" height="30" viewBox="0 0 30 30" fill="none" xmlns="http://www.w3.org/2000/svg">
<g clip-path="url(#clip0)">
<path d="M15 30C23.2843 30 30 23.2843 30 15C30 6.71573 23.2843 0 15 0C6.71573 0 0 6.71573 0 15C0 23.2843 6.71573 30 15 30Z" fill="#EB6D4A"/>
<path d="M21.6752 8.41641V13.4017C21.6752 13.474 21.6734 13.546 21.6718 13.6181C21.6686 13.7674 21.6603 13.9164 21.6473 14.0639C21.6441 14.1148 21.639 14.1655 21.6324 14.2164C21.6111 14.4278 21.5817 14.636 21.5439 14.8427C21.5307 14.9116 21.5176 14.9787 21.5028 15.046C21.5012 15.0606 21.498 15.0739 21.4947 15.087C21.4814 15.1558 21.465 15.2231 21.4488 15.2903C21.4422 15.3263 21.4323 15.3623 21.4242 15.3985C21.4159 15.4296 21.4078 15.4609 21.398 15.492C21.3634 15.6264 21.3242 15.7576 21.2831 15.8887C21.2635 15.951 21.2439 16.0116 21.2225 16.0739C21.2207 16.0805 21.2175 16.087 21.216 16.0936C21.1962 16.1492 21.1766 16.205 21.157 16.2607C21.1504 16.2771 21.1439 16.2933 21.1372 16.3115C21.1176 16.364 21.098 16.4164 21.0766 16.4689C21.052 16.5328 21.0259 16.5952 20.9996 16.6575C20.9766 16.7133 20.9521 16.769 20.9275 16.8248C20.9243 16.8347 20.9192 16.8428 20.916 16.8525C20.8881 16.9115 20.862 16.9707 20.8341 17.0279C20.8062 17.0885 20.7767 17.1493 20.7454 17.21C20.6864 17.3296 20.6225 17.4494 20.5585 17.5658C20.529 17.6182 20.4996 17.6707 20.4699 17.7231C20.2175 18.1576 19.9372 18.5658 19.6323 18.9428C19.5912 18.9968 19.5488 19.0493 19.5044 19.1001C19.4437 19.1738 19.3813 19.246 19.3192 19.3165C19.2633 19.3788 19.2077 19.441 19.1503 19.5018C18.9929 19.6706 18.8322 19.8314 18.6683 19.9822C18.6356 20.015 18.601 20.0445 18.5666 20.0756C18.5109 20.1265 18.4553 20.1756 18.3977 20.2231C18.3535 20.2625 18.3076 20.3001 18.2615 20.3379C18.1435 20.4346 18.0255 20.528 17.906 20.6149C17.8567 20.6527 17.8058 20.6887 17.7551 20.7232C17.6732 20.7822 17.5896 20.838 17.5059 20.892C17.46 20.9231 17.4125 20.9526 17.3648 20.9805C17.1975 21.0838 17.0288 21.1789 16.8616 21.2608C16.8206 21.282 16.7796 21.3018 16.7386 21.3214C16.6975 21.341 16.6551 21.3608 16.6108 21.3804C16.5565 21.405 16.5025 21.4279 16.4484 21.4493C16.4271 21.4592 16.4057 21.4673 16.3845 21.4738C16.3207 21.5002 16.255 21.5247 16.1911 21.5459C16.1107 21.5754 16.0288 21.6 15.9486 21.6229C15.8928 21.6394 15.8355 21.654 15.7797 21.6671C15.7764 21.6688 15.7732 21.6704 15.7682 21.6704C15.7124 21.6835 15.6568 21.6968 15.601 21.7065C15.5861 21.7098 15.5716 21.713 15.5568 21.7146C15.5109 21.7227 15.465 21.731 15.419 21.736C15.3535 21.7459 15.288 21.754 15.2224 21.7573C15.1996 21.7605 15.1783 21.7623 15.1551 21.7623C15.1028 21.7656 15.0504 21.7672 14.9994 21.7672H14.9946C14.9437 21.7672 14.8929 21.7656 14.8421 21.7623C14.8224 21.7623 14.8028 21.7607 14.783 21.7573C14.7372 21.7558 14.6896 21.7506 14.6404 21.7441C14.6306 21.7441 14.6191 21.7425 14.6094 21.7409C14.5486 21.7328 14.488 21.7229 14.4257 21.7114C14.3734 21.7033 14.3209 21.6917 14.2667 21.6786C13.9864 21.6146 13.6979 21.518 13.4061 21.3884C13.1569 21.2785 12.9045 21.1459 12.6537 20.9917C12.5274 20.9147 12.4011 20.8327 12.2766 20.7458C12.2143 20.7015 12.1521 20.6573 12.0897 20.6114C11.8946 20.4687 11.7012 20.3131 11.5109 20.1458C11.4586 20.0983 11.4062 20.0508 11.3537 20.0015C11.3013 19.954 11.2488 19.9049 11.1979 19.8574C11.0699 19.7344 10.9454 19.6065 10.824 19.4737C10.7765 19.423 10.729 19.3706 10.6813 19.3163C10.5503 19.1688 10.4224 19.0164 10.301 18.8573C10.2534 18.7999 10.2092 18.7409 10.1649 18.6819C9.99936 18.4623 9.84199 18.2327 9.69434 17.995C9.65511 17.931 9.61573 17.8654 9.5781 17.8016C9.53218 17.7246 9.48801 17.646 9.44369 17.5672C9.27977 17.272 9.12877 16.9656 8.99771 16.6491C8.97809 16.6032 8.95832 16.5572 8.9419 16.5115C8.91559 16.4525 8.89263 16.3917 8.87142 16.3327C8.83874 16.2458 8.80764 16.1589 8.77799 16.072C8.74849 15.9851 8.72074 15.8966 8.69284 15.8081C8.66653 15.7228 8.64198 15.6377 8.61902 15.5508C8.59271 15.459 8.56831 15.3655 8.54694 15.2705C8.54519 15.2606 8.542 15.2509 8.54041 15.241C8.50931 15.1099 8.48141 14.9771 8.45686 14.8427C8.42401 14.6655 8.39786 14.4852 8.37809 14.3033C8.36996 14.2459 8.36501 14.1885 8.36007 14.1311C8.35353 14.0705 8.34875 14.0113 8.3454 13.9507C8.33711 13.8409 8.33217 13.7294 8.32882 13.618C8.32722 13.5457 8.32547 13.4737 8.32547 13.4016V8.41641C8.32547 4.73282 11.3108 1.74602 14.9944 1.74268H15.001C15.5093 1.74268 16.0042 1.79992 16.4795 1.90659C16.914 2.00497 17.3321 2.14592 17.7288 2.32466C18.2698 2.56735 18.773 2.87875 19.2256 3.2509C19.6058 3.56247 19.9518 3.91325 20.2534 4.30008C21.144 5.43456 21.6752 6.86242 21.6752 8.41641Z" fill="#ECC19C"/>
<path d="M23.6962 32.008V32.0096H6.30429V32.008C6.30429 31.0261 6.46661 30.0801 6.76829 29.1997C6.82234 29.0408 6.88134 28.8834 6.94528 28.7276V28.726C7.00906 28.5702 7.07634 28.4178 7.14841 28.267C7.43542 27.662 7.79275 27.0965 8.20747 26.5784C8.31239 26.4489 8.4189 26.3227 8.52892 26.2013C8.58298 26.139 8.64038 26.0784 8.69778 26.0178C8.75518 25.9588 8.81258 25.8998 8.87158 25.8408C9.16512 25.5474 9.47972 25.2786 9.81105 25.031C9.97656 24.908 10.1438 24.7932 10.3176 24.6818C10.4914 24.5719 10.6684 24.467 10.8487 24.3686C10.8521 24.3654 10.8553 24.3654 10.8553 24.3654C10.9258 24.3278 10.9946 24.2868 11.0635 24.2441C11.1997 24.1621 11.334 24.0736 11.462 23.9786C11.5275 23.9327 11.5899 23.8852 11.6521 23.8343C11.7995 23.7163 11.9421 23.59 12.0783 23.4572C12.1224 23.413 12.1669 23.3687 12.2111 23.3228C12.3028 23.2276 12.3897 23.1276 12.4734 23.026C12.5145 22.9769 12.5555 22.9261 12.5931 22.8752C12.6325 22.8245 12.6701 22.772 12.7079 22.7194C12.9997 22.3128 13.2341 21.8654 13.4063 21.3882C13.6145 20.8078 13.7276 20.1832 13.7276 19.5308L14.9949 19.5373L16.2981 19.5438C16.2981 20.188 16.4079 20.806 16.6112 21.3799C16.7802 21.8586 17.0145 22.3061 17.3015 22.7127C17.5998 23.1356 17.9555 23.5127 18.3588 23.8356C18.4195 23.8848 18.4801 23.9324 18.5409 23.9765C18.5999 24.0208 18.6605 24.0634 18.7228 24.1044C18.736 24.1143 18.7474 24.1224 18.7606 24.1307C18.8196 24.1701 18.8786 24.2095 18.9409 24.2455C19.0081 24.2865 19.0771 24.3275 19.1458 24.3653C19.1572 24.3684 19.1672 24.3734 19.1753 24.3801C19.3196 24.4604 19.4623 24.544 19.6017 24.6309C19.6688 24.6719 19.7361 24.7144 19.8016 24.7621C19.9378 24.8506 20.0706 24.9441 20.2 25.0424C20.2 25.0442 20.2017 25.0442 20.2017 25.0442H20.2033C20.5345 25.2917 20.8476 25.5621 21.141 25.854C22.7208 27.4276 23.6962 29.6014 23.6962 32.008Z" fill="#ECC19C"/>
<path d="M23.6963 32.0083H6.30445C6.30445 31.0263 6.46693 30.0804 6.76845 29.2001C6.8225 29.041 6.8815 28.8838 6.94544 28.728C6.94368 28.7262 6.94544 28.7262 6.94544 28.7262C7.00778 28.5704 7.0765 28.418 7.14857 28.2673C7.43558 27.6624 7.79291 27.0968 8.20763 26.5788C8.31255 26.4491 8.41922 26.323 8.52908 26.2017C8.58314 26.1393 8.64054 26.0787 8.69794 26.0181C8.75534 25.9591 8.81274 25.9001 8.87174 25.8412C9.16528 25.5478 9.47988 25.2788 9.81121 25.0313C9.97672 24.9084 10.144 24.7936 10.3178 24.6821C10.4916 24.5707 10.6686 24.4657 10.8489 24.3674C10.8523 24.3642 10.8554 24.3658 10.8554 24.3658V24.3642C10.9259 24.3248 10.9948 24.2854 11.0637 24.2444C11.2686 24.1199 11.4655 23.9821 11.649 23.8313C11.6506 23.8329 11.6506 23.8329 11.6524 23.8345C12.5014 24.7033 13.6834 25.2426 14.9951 25.2459H15.0081C16.3196 25.2459 17.5065 24.7049 18.359 23.8361L18.3607 23.8345C18.4769 23.9311 18.5983 24.0214 18.723 24.1049C18.736 24.1146 18.7475 24.1229 18.7606 24.1311C18.8196 24.1704 18.8802 24.2081 18.9409 24.2459C19.0082 24.2868 19.0771 24.3262 19.1458 24.3639C19.1573 24.367 19.1654 24.3736 19.1753 24.3785C19.3196 24.4589 19.4623 24.5424 19.6017 24.6309C19.6688 24.6719 19.7361 24.7145 19.8016 24.7622C19.9378 24.8491 20.0706 24.9441 20.1999 25.0425H20.2033C20.5362 25.2917 20.8492 25.5621 21.141 25.8539C22.721 27.428 23.6963 29.6018 23.6963 32.0083Z" fill="#C7D4E2"/>
<path d="M21.6752 13.4015C21.6752 13.4738 21.6734 13.5458 21.6718 13.6179C21.6686 13.7671 21.6603 13.9162 21.6473 14.0637C21.6441 14.1146 21.639 14.1653 21.6324 14.2161C21.6111 14.4276 21.5817 14.6358 21.5439 14.8425C21.5307 14.9113 21.5176 14.9785 21.5028 15.0458C21.5012 15.0604 21.498 15.0737 21.4947 15.0867C21.4814 15.1556 21.465 15.2229 21.4488 15.29C21.4405 15.3294 21.4307 15.3671 21.4191 15.4048C21.4143 15.4343 21.406 15.4638 21.3979 15.4917C21.3633 15.6262 21.3241 15.7574 21.2829 15.8884C21.2633 15.9508 21.2437 16.0114 21.2223 16.0737C21.2206 16.0803 21.2174 16.0868 21.2158 16.0933C21.196 16.149 21.1764 16.2048 21.1568 16.2604C21.1503 16.2769 21.1437 16.2931 21.137 16.3113C21.1174 16.3638 21.0978 16.4162 21.0764 16.4687C21.0519 16.5326 21.0257 16.595 20.9994 16.6573C20.9765 16.7131 20.9519 16.7688 20.9274 16.8246C20.9242 16.8345 20.9191 16.8426 20.9159 16.8523C20.888 16.9113 20.8618 16.9705 20.8339 17.0277C20.806 17.0883 20.7765 17.1491 20.7453 17.2098C20.6863 17.3294 20.6223 17.4491 20.5584 17.5655C20.5289 17.618 20.4994 17.6704 20.4697 17.7229C20.2173 18.1574 19.937 18.5656 19.6322 18.9425C19.591 18.9966 19.5486 19.049 19.5043 19.0999C19.4435 19.1736 19.3812 19.2458 19.319 19.3163C19.2632 19.3786 19.2075 19.4408 19.1501 19.5016C18.9928 19.6704 18.832 19.8311 18.6681 19.982C18.6354 20.0148 18.6008 20.0443 18.5664 20.0754C18.5107 20.1263 18.4551 20.1754 18.3975 20.2229C18.3534 20.2623 18.3074 20.2999 18.2614 20.3377C18.1434 20.4343 18.0254 20.5278 17.9058 20.6147C17.8565 20.6525 17.8057 20.6885 17.755 20.7229C17.673 20.7819 17.5895 20.8377 17.5057 20.8918C17.4598 20.9229 17.4123 20.9524 17.3646 20.9803C17.1974 21.0836 17.0287 21.1786 16.8614 21.2606C16.8204 21.2818 16.7794 21.3016 16.7385 21.3212C16.6973 21.3408 16.6549 21.3606 16.6106 21.3802C16.5564 21.4047 16.5023 21.4277 16.4483 21.4491C16.4269 21.459 16.4055 21.4671 16.3843 21.4736C16.3206 21.4999 16.2549 21.5245 16.1909 21.5457C16.1106 21.5752 16.0286 21.5997 15.9484 21.6227C15.8926 21.6391 15.8354 21.6538 15.7795 21.6669C15.7762 21.6686 15.773 21.6702 15.7681 21.6702C15.7123 21.6833 15.6566 21.6965 15.6008 21.7063C15.586 21.7096 15.5715 21.7128 15.5566 21.7144C15.5107 21.7225 15.4648 21.7308 15.4189 21.7358C15.3533 21.7456 15.2878 21.7538 15.2223 21.7571C15.1995 21.7603 15.1781 21.7621 15.155 21.7621C15.1027 21.7654 15.0502 21.767 14.9992 21.767H14.9944C14.9436 21.767 14.8927 21.7654 14.842 21.7621C14.8222 21.7621 14.8026 21.7605 14.7828 21.7571C14.7371 21.7555 14.6894 21.7504 14.6403 21.7439C14.6304 21.7439 14.6189 21.7423 14.6092 21.7407C14.5484 21.7326 14.4878 21.7227 14.4255 21.7112C14.3732 21.7031 14.3207 21.6914 14.2665 21.6784C13.9862 21.6144 13.6978 21.5178 13.406 21.3882C13.1568 21.2783 12.9044 21.1456 12.6535 20.9914C12.5273 20.916 12.4027 20.8341 12.2764 20.7456C12.2141 20.7013 12.1519 20.6571 12.0896 20.6112C11.8944 20.4685 11.701 20.3128 11.5108 20.1456C11.4585 20.0981 11.406 20.0505 11.3536 20.0013C11.3011 19.9538 11.2486 19.9046 11.1978 19.8571C11.0697 19.7342 10.9452 19.6063 10.8239 19.4735C10.7764 19.4228 10.7288 19.3703 10.6812 19.3161C10.5501 19.1686 10.4222 19.0162 10.3009 18.8571C10.2532 18.7997 10.209 18.7407 10.1647 18.6817C9.9992 18.4621 9.84182 18.2325 9.69417 17.9948C9.65495 17.9308 9.61556 17.8651 9.57793 17.8014C9.53201 17.7243 9.48785 17.6457 9.44352 17.567C9.2796 17.2718 9.12861 16.9654 8.99754 16.6489C8.97793 16.6029 8.95815 16.557 8.94173 16.5113C8.91542 16.4523 8.89246 16.3915 8.87126 16.3325C8.83857 16.2456 8.80748 16.1587 8.77782 16.0718C8.74832 15.9849 8.72058 15.8964 8.69267 15.8079C8.66636 15.7226 8.64181 15.6375 8.61885 15.5506C8.59254 15.4587 8.56814 15.3653 8.54678 15.2703C8.54502 15.2604 8.54183 15.2507 8.54024 15.2408C8.50915 15.1097 8.48124 14.9769 8.45669 14.8425C8.42384 14.6653 8.39769 14.485 8.37792 14.3031C8.36979 14.2456 8.36485 14.1882 8.3599 14.1308C8.35337 14.0703 8.34858 14.0111 8.34523 13.9505C8.33694 13.8406 8.332 13.7292 8.32865 13.6177C8.32706 13.5455 8.3253 13.4734 8.3253 13.4014L9.39106 15.4965L11.2222 16.2949L13.3876 16.49L14.9943 16.6359H15.0041L16.5074 16.7721L19.8567 17.0738L21.6752 13.4015Z" fill="#543E36"/>
<path d="M20.2537 4.30009C19.9274 5.03945 19.5028 5.72636 19.0012 6.34933C18.9717 6.38552 18.9422 6.42156 18.9111 6.45759C17.8833 7.69523 16.5358 8.65767 14.9947 9.21989C14.5897 9.36913 14.1718 9.49031 13.7423 9.58056C13.4554 9.64115 13.1636 9.68882 12.8669 9.72327C12.5258 9.76089 12.1784 9.78067 11.826 9.78067C11.4228 9.78067 11.0276 9.75436 10.6392 9.70365C10.2588 9.65614 9.88663 9.58566 9.52277 9.49063C9.31453 9.43817 9.11123 9.37758 8.90953 9.31029C8.71117 9.24476 8.51776 9.17253 8.32594 9.09392V8.4169C8.32594 4.73331 11.3113 1.74651 14.9949 1.74316H15.0014C15.5098 1.74316 16.0047 1.80041 16.48 1.90708C16.9145 2.00546 17.3326 2.14641 17.7293 2.32515C18.2703 2.56783 18.7735 2.87924 19.226 3.25139C19.6062 3.56232 19.9522 3.91326 20.2537 4.30009Z" fill="#543E36"/>
<path d="M21.6752 8.41637V9.72943C20.5373 8.84911 19.5948 7.736 18.9145 6.46392C18.9129 6.46232 18.9129 6.45897 18.9111 6.45738C18.2424 5.20826 17.8275 3.80654 17.7293 2.32446C18.2703 2.56714 18.7735 2.87855 19.226 3.2507C19.6063 3.56226 19.9523 3.91305 20.2538 4.29988C21.144 5.43451 21.6752 6.86238 21.6752 8.41637Z" fill="#543E36"/>
<path d="M9.10772 8.93119C9.0374 9.05412 8.9733 9.18041 8.90936 9.30988C8.88497 9.36059 8.86025 9.4148 8.8357 9.46726C8.51282 10.1853 8.35034 10.8902 8.32738 11.5264C8.32738 11.5444 8.32562 11.564 8.32562 11.5822V9.01155C8.32562 8.91971 8.32897 8.82946 8.32897 8.74097C8.58807 8.80825 8.84702 8.87379 9.10772 8.93119Z" fill="#543E36"/>
<path d="M20.8964 8.93128C20.9956 9.10556 21.0841 9.28414 21.1691 9.46719C21.502 10.2075 21.665 10.9306 21.679 11.5828V9.01085C21.679 8.92044 21.6756 8.83003 21.6756 8.7417C21.4169 8.80851 21.1584 8.87308 20.8964 8.93128Z" fill="#543E36"/>
<path d="M20.8833 9.59361C20.8833 9.56571 20.862 9.54115 20.8341 9.5378C20.5981 9.50177 19.5357 9.35571 18.3931 9.35571C17.0963 9.35571 15.4225 9.76231 15.1307 9.76231H14.8718C14.7356 9.76231 14.2997 9.67381 13.7423 9.58038C13.1013 9.47211 12.3013 9.35571 11.6095 9.35571C10.7735 9.35571 9.97991 9.43448 9.52261 9.49013C9.35534 9.5099 9.23241 9.52776 9.16847 9.53764C9.14057 9.54099 9.1192 9.56555 9.1192 9.59345L9.10612 10.2901C9.10612 10.3146 9.12095 10.336 9.14375 10.3459L9.22236 10.3738C9.33876 10.4181 9.32903 12.5181 9.95519 13.0427C10.3273 13.3525 10.6585 13.5295 12.0535 13.5295C12.8618 13.5295 13.37 13.3115 13.852 12.6606C14.1996 12.1934 14.5076 11.0884 14.5076 11.0884C14.6011 10.6327 14.9404 10.5967 14.9946 10.5934C14.9979 10.5934 15.0011 10.5934 15.0011 10.5934C15.0124 10.5934 15.3946 10.5999 15.4946 11.0884C15.4946 11.0884 15.8028 12.1934 16.1503 12.6606C16.6321 13.3115 17.1404 13.5295 17.9485 13.5295C19.3437 13.5295 19.6747 13.3525 20.0469 13.0427C20.6732 12.5181 20.6633 10.4181 20.7797 10.3738L20.8585 10.3459C20.8813 10.336 20.8961 10.3148 20.8961 10.2901L20.8833 9.59361ZM13.8521 12.0788C13.6472 12.564 13.1177 13.1903 12.3718 13.2279C10.1341 13.341 10.0308 12.7164 9.88647 12.2213C9.74057 11.7262 9.70294 11.2917 9.76018 10.7967C9.81918 10.3016 9.94387 10.0114 10.1685 9.86547C10.2652 9.80153 10.3702 9.74413 10.6391 9.70315C10.88 9.66712 11.2521 9.64575 11.8718 9.64575C12.2307 9.64575 12.5668 9.67365 12.8667 9.72277C13.6635 9.85064 14.2012 10.1212 14.2012 10.3883C14.2012 10.5706 14.1552 11.3606 13.8521 12.0788ZM20.1159 12.2213C19.9718 12.7164 19.8685 13.341 17.6307 13.2279C16.8848 13.1903 16.3553 12.564 16.1504 12.0788C15.8471 11.3608 15.8014 10.5706 15.8014 10.3886C15.8014 10.0214 16.8211 9.64591 18.1308 9.64591C19.4407 9.64591 19.6503 9.74429 19.8342 9.86563C20.0587 10.0115 20.1832 10.3017 20.2424 10.7968C20.2998 11.2919 20.262 11.7264 20.1159 12.2213Z" fill="#1A1A1A"/>
<path d="M15.0078 14.4542L15.0061 16.0707L15.0045 16.6363V17.0805L15.0027 18.5559V18.5575L15.0011 18.5559H14.9994L14.9946 18.5525L8.5471 15.2708C8.54534 15.2609 8.54215 15.2511 8.54056 15.2413C8.50947 15.1102 8.48156 14.9774 8.45701 14.843C8.42416 14.6658 8.39801 14.4855 8.37824 14.3035C8.37011 14.2461 8.36517 14.1887 8.36022 14.1313C8.35369 14.0707 8.3489 14.0116 8.34555 13.951C8.33726 13.8411 8.33232 13.7297 8.32897 13.6182C8.32738 13.546 8.32562 13.4739 8.32562 13.4019V11.4429C8.32562 11.4708 8.32738 11.4987 8.32738 11.5264C8.34045 12.0001 8.41587 12.5215 8.56177 13.0543C8.67498 13.464 8.81593 13.8427 8.97984 14.1805V14.182C9.4094 15.0756 9.98485 15.682 10.5142 15.7804C10.5471 15.7853 10.5815 15.7885 10.6144 15.7918C10.8192 15.8148 11.034 15.8279 11.2553 15.8279C12.0913 15.8279 12.834 15.1558 13.3012 14.8836C13.3046 14.882 13.3078 14.8803 13.3111 14.8787C13.3357 14.8638 13.3604 14.8492 13.3816 14.8344C13.3881 14.8294 13.3947 14.8262 13.4012 14.8229C13.7947 14.5982 14.3619 14.4557 14.9947 14.4541H15.0078V14.4542Z" fill="#543E36"/>
<path d="M21.6766 11.4429L21.675 13.4019C21.675 13.8938 21.6291 14.3756 21.5439 14.843C21.5093 15.0298 21.4701 15.215 21.4242 15.3986L19.911 17.5839L15.0029 18.556H15.0013L14.9995 18.5576V18.556L14.9947 14.4539H15.0078C15.6407 14.4555 16.2094 14.5982 16.6029 14.8227C16.6095 14.8261 16.6143 14.8292 16.621 14.8342C16.6439 14.849 16.6685 14.8637 16.693 14.8785C16.6946 14.8801 16.6978 14.8819 16.7012 14.8835C17.1701 15.1556 17.9111 15.8282 18.7472 15.8282C18.9685 15.8282 19.1831 15.8151 19.388 15.7922C19.4225 15.7888 19.4553 15.7856 19.4898 15.7807C20.0177 15.6823 20.5947 15.0758 21.0225 14.1824V14.1808C21.1863 13.8431 21.3274 13.4644 21.4405 13.0546C21.5881 12.5136 21.6651 11.9858 21.675 11.5054C21.6766 11.4838 21.6766 11.4641 21.6766 11.4429Z" fill="#543E36"/>
<path d="M15 17.081C15.9031 17.081 16.6352 16.8547 16.6352 16.5755C16.6352 16.2964 15.9031 16.0701 15 16.0701C14.0969 16.0701 13.3649 16.2964 13.3649 16.5755C13.3649 16.8547 14.0969 17.081 15 17.081Z" fill="#ECC19C"/>
<path d="M10.2256 24.7422V33.7603H9.52899V25.2505C9.62243 25.1751 9.71587 25.1013 9.81106 25.0308C9.94707 24.9292 10.0847 24.834 10.2256 24.7422Z" fill="#435363"/>
<path d="M19.775 24.7439V32.0078V33.7603H20.4717V32.0078V25.2521L19.775 24.7439Z" fill="#435363"/>
<path d="M13.0928 24.1904L15 26.4763L16.9073 24.1904H13.0928Z" fill="#141720"/>
<path d="M15 35.9456H13.8722L14.687 25.4539C14.7213 25.5873 15.2789 25.5873 15.3132 25.4539L16.1279 35.9456H15Z" fill="#141720"/>
<path d="M14.9994 24.1784L14.9946 24.1866L14.9928 24.1899L14.201 25.5194L13.4616 26.7586L11.4599 23.9767C11.5239 23.9308 11.5878 23.8817 11.6485 23.8308C11.6501 23.8324 11.6501 23.8324 11.6519 23.8342C12.0534 23.5145 12.4109 23.1392 12.7076 22.7195L14.9946 24.1752L14.9994 24.1784Z" fill="#E7ECF2"/>
<path d="M18.5404 23.9767L16.5387 26.7586L15.7993 25.5194L15.0057 24.1899L14.9992 24.1784L17.301 22.7129C17.5993 23.1357 17.9551 23.5128 18.3583 23.8357C18.4192 23.8848 18.4797 23.9325 18.5404 23.9767Z" fill="#E7ECF2"/>
</g>
<defs>
<clipPath id="clip0">
<rect width="30" height="30" fill="white"/>
</clipPath>
</defs>
</svg>
