<svg width="30" height="30" viewBox="0 0 30 30" fill="none" xmlns="http://www.w3.org/2000/svg">
<path d="M30 15C30 15.5326 29.9725 16.0593 29.9174 16.5777C29.8034 17.6724 29.5715 18.7317 29.2346 19.7431C28.1442 23.0173 25.9561 25.7895 23.1061 27.6233C22.6463 27.9197 22.1688 28.1909 21.676 28.4363C21.6282 28.4603 21.5804 28.4834 21.5321 28.5072C21.2853 28.6267 21.0349 28.74 20.7813 28.846C19.4014 29.4228 17.9162 29.7986 16.3634 29.9389C15.9142 29.9792 15.4598 30 15 30C6.71562 30 0 23.2844 0 15C0 6.71562 6.71562 0 15 0C23.2844 0 30 6.71562 30 15Z" fill="#66BAED"/>
<path d="M21.676 28.4362C20.0505 29.2455 18.2577 29.7679 16.3635 29.9388C16.3909 29.4801 16.6212 29.1201 17.2653 29.0981C19.102 29.0368 20.6406 27.5454 20.6406 27.5454L21.676 28.4362Z" fill="#DD3033"/>
<path d="M17.9816 26.3425V28.0562C16.4081 28.9488 14.6564 29.5654 12.794 29.8389C10.2912 29.47 7.98912 28.483 6.04889 27.0381C5.09949 26.3308 4.23615 25.5135 3.47809 24.6048C4.16267 22.5161 6.04889 20.9707 8.32031 20.7871C8.47092 20.7747 8.62289 20.7686 8.77647 20.7686H12.4065C12.8357 20.7686 13.2532 20.8164 13.6542 20.9082C16.1327 21.4751 17.9816 23.6932 17.9816 26.3425Z" fill="#DD3033"/>
<path d="M17.9816 26.3425V29.7036C17.0181 29.8977 16.0213 30 15 30C14.4678 30 13.9426 29.9726 13.4246 29.9181C10.6776 29.6315 8.1514 28.6034 6.04889 27.0381V26.3425C6.04889 23.2641 8.54507 20.7686 11.624 20.7686H12.4065C13.7682 20.7686 15.016 21.2565 15.984 22.0672V22.0677C16.5532 22.5442 17.0258 23.132 17.3682 23.798C17.7605 24.5609 17.9816 25.4261 17.9816 26.3425Z" fill="#F74F4F"/>
<path d="M5.13585 14.6211C5.13585 15.5416 4.46339 16.3052 3.58266 16.4469C3.4863 16.4624 3.38742 16.4704 3.28625 16.4704C2.26453 16.4704 1.43689 15.6428 1.43689 14.6211C1.43689 13.5993 2.26453 12.7715 3.28625 12.7715C3.38742 12.7715 3.4863 12.7797 3.58266 12.7953C4.46339 12.937 5.13585 13.7003 5.13585 14.6211Z" fill="#D3A489"/>
<path d="M12.088 22.7798L10.5918 25.1798L9.09534 22.7798" fill="#3D4159"/>
<path d="M11.9076 29.6805C11.0651 29.5041 10.2484 29.2569 9.46472 28.9451L10.5917 24.5554L11.9076 29.6805Z" fill="#3D4159"/>
<path d="M5.13588 14.6212C5.13588 15.5418 4.46342 16.3053 3.58269 16.447C3.4227 15.8652 3.3371 15.2529 3.3371 14.6212C3.3371 13.9893 3.42247 13.377 3.58269 12.7954C4.46342 12.9371 5.13588 13.7004 5.13588 14.6212Z" fill="#BF8E75"/>
<path d="M3.94727 14.6212C3.94727 14.9863 3.65132 15.2822 3.28625 15.2822C2.92119 15.2822 2.62524 14.9863 2.62524 14.6212C2.62524 14.2561 2.92119 13.9602 3.28625 13.9602C3.65132 13.9602 3.94727 14.2561 3.94727 14.6212Z" fill="#BF8E75"/>
<path d="M10.591 23.0504L8.08156 24.445L7.31824 20.8941L8.87761 19.9756" fill="#DD3033"/>
<path d="M10.5911 23.0504L13.1008 24.445L13.8641 20.8941L12.3049 19.9756" fill="#DD3033"/>
<path d="M16.0469 14.6211C16.0469 15.5416 16.7196 16.3052 17.6003 16.4469C17.6964 16.4624 17.7955 16.4704 17.8965 16.4704C18.9182 16.4704 19.7461 15.6428 19.7461 14.6211C19.7461 13.5993 18.9182 12.7715 17.8965 12.7715C17.7955 12.7715 17.6964 12.7797 17.6003 12.7953C16.7196 12.937 16.0469 13.7003 16.0469 14.6211Z" fill="#D3A489"/>
<path d="M16.0469 14.6212C16.0469 15.5418 16.7196 16.3053 17.6004 16.447C17.7603 15.8652 17.8457 15.2529 17.8457 14.6212C17.8457 13.9893 17.7603 13.377 17.6004 12.7954C16.7196 12.9371 16.0469 13.7004 16.0469 14.6212Z" fill="#BF8E75"/>
<path d="M18.5576 14.6212C18.5576 14.9863 18.2616 15.2822 17.8965 15.2822C17.5315 15.2822 17.2355 14.9863 17.2355 14.6212C17.2355 14.2561 17.5315 13.9602 17.8965 13.9602C18.2616 13.9602 18.5576 14.2561 18.5576 14.6212Z" fill="#BF8E75"/>
<path d="M17.4731 13.6382C17.4731 17.0625 14.9712 19.9033 11.6959 20.4307C11.3368 20.4897 10.9678 20.5195 10.5915 20.5195C6.79073 20.5195 3.71021 17.4388 3.71021 13.6382C3.71021 11.8398 5.02376 9.14042 6.15306 7.91453C7.41054 6.54925 8.58905 6.75662 10.5915 6.75662C10.9678 6.75662 11.3368 6.78637 11.6959 6.84542C14.9712 7.373 17.4731 10.2136 17.4731 13.6382Z" fill="#BF8E75"/>
<path d="M12.5803 18.6211V21.0619C12.5803 21.9554 11.9911 22.7108 11.1798 22.9616C10.9939 23.0191 10.7959 23.0504 10.5911 23.0504C9.4929 23.0504 8.60278 22.1601 8.60278 21.0619V18.6211H12.5803Z" fill="#BF8E75"/>
<path d="M12.5803 20.9072V21.062C12.5803 21.9555 11.9911 22.7108 11.1797 22.9617C10.4475 22.7365 9.89685 22.0999 9.79523 21.3208C9.92821 21.3291 10.0616 21.3332 10.196 21.3332C10.5723 21.3332 10.941 21.3032 11.3004 21.2441C11.743 21.1732 12.1708 21.0592 12.5803 20.9072Z" fill="#D3A489"/>
<path d="M17.4731 13.6382C17.4731 17.0625 14.9712 19.9034 11.6959 20.4307C8.42056 19.9034 5.91888 17.0625 5.91888 13.6382C5.91888 11.5295 6.86737 9.64217 8.36174 8.37965C9.29329 7.59184 10.4377 7.04825 11.6959 6.84546C14.7496 7.33687 17.1313 9.84015 17.439 12.952C17.4614 13.1777 17.4731 13.407 17.4731 13.6382Z" fill="#D3A489"/>
<path d="M9.12596 13.2375C9.12596 13.6687 8.77646 14.018 8.34547 14.018C7.91426 14.018 7.56476 13.6687 7.56476 13.2375C7.56476 12.8063 7.91426 12.4568 8.34547 12.4568C8.77646 12.4568 9.12596 12.8063 9.12596 13.2375Z" fill="#3D4159"/>
<path d="M13.6182 13.2375C13.6182 13.6687 13.2687 14.018 12.8377 14.018C12.4065 14.018 12.057 13.6687 12.057 13.2375C12.057 12.8063 12.4065 12.4568 12.8377 12.4568C13.2687 12.4568 13.6182 12.8063 13.6182 13.2375Z" fill="#3D4159"/>
<path d="M8.96687 13.0998C8.96687 13.2845 8.81696 13.4342 8.63225 13.4342C8.44754 13.4342 8.29785 13.2845 8.29785 13.0998C8.29785 12.9151 8.44754 12.7654 8.63225 12.7654C8.81696 12.7654 8.96687 12.9151 8.96687 13.0998Z" fill="white"/>
<path d="M13.4974 13.0998C13.4974 13.2845 13.3477 13.4342 13.163 13.4342C12.9783 13.4342 12.8286 13.2845 12.8286 13.0998C12.8286 12.9151 12.9783 12.7654 13.163 12.7654C13.3477 12.7654 13.4974 12.9151 13.4974 13.0998Z" fill="white"/>
<path d="M11.3722 15.2029H9.81104C9.62495 15.2029 9.47412 15.0521 9.47412 14.8662C9.47412 14.6801 9.62495 14.5295 9.81104 14.5295H11.3722C11.5581 14.5295 11.7089 14.6801 11.7089 14.8662C11.7089 15.0521 11.5581 15.2029 11.3722 15.2029Z" fill="#BF8E75"/>
<path d="M12.8572 26.1594H15.8571V27.0779H12.8572V26.1594Z" fill="#DD3033"/>
<path d="M10.1889 4.79082C12.2733 4.93982 13.9471 6.6237 14.0533 8.74361L14.073 9.1414H15.2719L15.918 13.4364L17.4825 12.9521L17.2723 8.74361C17.1613 6.51704 15.3197 4.77182 13.0909 4.78006L10.1889 4.79082Z" fill="#2A2F4F"/>
<path d="M17.1398 3.12988C18.7997 4.78973 18.7997 7.48116 17.1398 9.14124C15.4797 10.8011 12.7883 10.8011 11.1282 9.14124L17.1398 3.12988Z" fill="#3D4159"/>
<path d="M11.1283 9.14093H5.91136L5.26523 13.4361L3.70105 12.952L3.91093 8.74313C4.02171 6.51703 5.86353 4.77135 8.09261 4.77982L15.6269 4.80797L16.6233 6.60103" fill="#3D4159"/>
<path d="M10.9941 4.79082C8.90968 4.93982 7.23587 6.6237 7.12967 8.74361L7.10999 9.1414H5.91087L5.26497 13.4364L3.70056 12.9521L3.91068 8.74361C4.02168 6.51704 5.86327 4.77182 8.09212 4.78006L10.9941 4.79082Z" fill="#2A2F4F"/>
<path d="M8.32581 16.2007C8.32581 17.452 9.34021 18.4662 10.5915 18.4662C11.8428 18.4662 12.8572 17.452 12.8572 16.2007" fill="#F2F0EC"/>
<path d="M20.641 22.2896H22.3244V27.5456H20.641V22.2896Z" fill="#E8C934"/>
<path d="M22.3244 24.2605V27.5454H21.4002V25.1382C21.4002 24.6535 21.7932 24.2603 22.2782 24.2603H22.3244V24.2605Z" fill="#FFE152"/>
<path d="M29.9174 16.5778C29.8034 17.6725 29.5715 18.7318 29.2346 19.7432C29.0803 19.9966 28.9048 20.2415 28.7093 20.4706C27.8492 21.4784 26.7501 22.0128 25.5924 22.0128C25.2546 22.0128 24.9122 21.9675 24.5688 21.875L24.8891 20.6853C26.3161 21.0698 27.3079 20.2145 27.772 19.6709C28.6267 18.67 28.9384 17.3377 28.6837 16.7682C28.4987 16.3551 28.195 16.1541 27.7286 16.1376C27.3067 16.1223 26.9295 16.2667 26.9259 16.2686L26.4711 15.1237C26.5304 15.0999 27.0692 14.8923 27.7224 14.9051C28.683 14.923 29.4239 15.4059 29.8084 16.2656C29.8524 16.3642 29.8885 16.4684 29.9174 16.5778Z" fill="#FFE152"/>
<path d="M17.373 22.0126C16.2151 22.0126 15.1165 21.4781 14.2561 20.4703C13.1415 19.1643 12.669 17.3564 13.1572 16.2651C13.5418 15.4059 14.2822 14.9229 15.2428 14.9048C15.8979 14.8923 16.4351 15.0999 16.4941 15.1234L16.2655 15.6952L16.0396 16.2683C16.0359 16.2669 15.6578 16.1223 15.2371 16.1374C14.7704 16.1541 14.4669 16.3544 14.282 16.7679C14.0272 17.3374 14.3387 18.6695 15.1932 19.6706C15.6576 20.2145 16.6493 21.0693 18.0764 20.685L18.3968 21.8745C18.0535 21.967 17.7106 22.0126 17.373 22.0126Z" fill="#E8C934"/>
<path d="M27.2726 14.053C27.2726 14.5556 27.2495 15.0493 27.2058 15.5313C26.8394 19.5381 25.0062 22.7374 22.6531 23.5456C22.2748 23.6756 21.8836 23.7438 21.4828 23.7438C18.2851 23.7438 15.6928 19.4052 15.6928 14.053H27.2726Z" fill="#E8C934"/>
<path d="M27.2056 15.5312C26.8394 19.5381 25.0063 22.7374 22.6529 23.5455C20.5241 22.8145 18.8214 20.1267 18.2444 16.6546C18.1469 16.0671 18.5964 15.5312 19.192 15.5312H27.2056Z" fill="#FFE152"/>
<path d="M28.3406 14.1503C28.3406 14.2821 28.287 14.4018 28.2005 14.4879C28.1138 14.5746 27.9948 14.6279 27.8625 14.6279H15.3493C15.0856 14.6279 14.8718 14.4139 14.8718 14.1503C14.8718 14.0187 14.9252 13.8987 15.0119 13.8124C15.098 13.7257 15.2174 13.6724 15.3493 13.6724H27.8625C28.1266 13.6724 28.3406 13.8864 28.3406 14.1503Z" fill="#E8C934"/>
<path d="M28.3406 14.1503C28.3406 14.2821 28.2871 14.4018 28.2005 14.4879C28.1138 14.5746 27.9948 14.6279 27.8625 14.6279H18.347C18.0833 14.6279 17.8695 14.4139 17.8695 14.1503C17.8695 14.0187 17.9228 13.8987 18.0094 13.8124C18.0956 13.7257 18.2151 13.6724 18.347 13.6724H27.8625C28.1266 13.6724 28.3406 13.8864 28.3406 14.1503Z" fill="#FFE152"/>
<path d="M21.4826 16.2185L22.1857 17.6433L23.7579 17.8717L22.6204 18.9804L22.8889 20.5462L21.4826 19.8071L20.0766 20.5462L20.3451 18.9804L19.2075 17.8717L20.7797 17.6433L21.4826 16.2185Z" fill="#E8C934"/>
<path d="M23.1123 25.7448V27.488C23.1123 27.5337 23.1104 27.5786 23.1061 27.6232C22.6463 27.9196 22.1688 28.1909 21.676 28.4362C21.6282 28.4603 21.5804 28.4834 21.5321 28.5072C21.2853 28.6266 21.0349 28.7399 20.7813 28.8459C20.3087 28.5784 19.9899 28.0702 19.9899 27.488V25.7448C19.9899 24.8828 20.6891 24.1836 21.5511 24.1836C21.7568 24.1836 21.9528 24.2234 22.1327 24.2957C22.3297 24.3747 22.5073 24.4928 22.655 24.6409C22.9372 24.9238 23.1123 25.3138 23.1123 25.7448Z" fill="#EAB599"/>
<path d="M23.1122 25.7449V27.4881C23.1122 27.5339 23.1104 27.5788 23.1061 27.6234C22.6462 27.9198 22.1688 28.191 21.676 28.4364C21.6282 28.4604 21.5803 28.4835 21.532 28.5073C21.2956 28.2343 21.153 27.8774 21.153 27.4881V25.7449C21.153 25.0887 21.5584 24.5266 22.1326 24.2959C22.3297 24.3749 22.5073 24.493 22.6549 24.6411C22.9371 24.924 23.1122 25.314 23.1122 25.7449Z" fill="#F6CAAE"/>
</svg>
