<svg width="30" height="30" viewBox="0 0 30 30" fill="none" xmlns="http://www.w3.org/2000/svg">
<path d="M29.5607 26.4292H18.7675V21.6597C18.7675 20.2464 19.9131 19.1006 21.3264 19.1006H27.0016C28.4149 19.1006 29.5607 20.2464 29.5607 21.6597V26.4292Z" fill="#EB5777"/>
<path d="M24.2254 20.5417C23.7437 20.5417 23.3532 20.151 23.3532 19.6694V17.2224H25.0975V19.6694C25.0977 20.151 24.707 20.5417 24.2254 20.5417Z" fill="#E39F6E"/>
<path d="M19.6107 13.8103H28.84L29.0835 12.6228C29.7138 9.54778 27.3646 6.66797 24.2254 6.66797C21.0861 6.66797 18.7368 9.54778 19.3672 12.6228L19.6107 13.8103Z" fill="#BA6F3C"/>
<path d="M29.3547 14.275C29.3547 14.9234 28.829 15.4494 28.1803 15.4494C27.5319 15.4494 27.0059 14.9234 27.0059 14.275C27.0059 13.6263 27.5319 13.1006 28.1803 13.1006C28.829 13.1006 29.3547 13.6263 29.3547 14.275Z" fill="#E39F6E"/>
<path d="M21.4445 14.275C21.4445 14.9234 20.9192 15.4494 20.2701 15.4494C19.6217 15.4494 19.0957 14.9234 19.0957 14.275C19.0957 14.1759 19.1076 14.0793 19.1316 13.9875C19.2596 13.4782 19.7208 13.1006 20.2701 13.1006C20.8267 13.1006 21.2928 13.4879 21.4134 14.0072C21.4337 14.093 21.4445 14.1832 21.4445 14.275Z" fill="#E39F6E"/>
<path d="M21.4134 14.0072C21.082 14.1974 20.6981 14.3061 20.2893 14.3061C19.8666 14.3061 19.4711 14.1896 19.1317 13.9873C19.2596 13.4782 19.7208 13.1006 20.2701 13.1006C20.8268 13.1006 21.2928 13.4879 21.4134 14.0072Z" fill="#D88852"/>
<path d="M20.529 10.9905L20.9318 14.2134L21.0843 15.4359C21.2825 17.0197 22.6292 18.2088 24.2252 18.2088C25.8217 18.2088 27.1687 17.0197 27.3662 15.4359L27.9215 10.9905H20.529Z" fill="#F8C298"/>
<path d="M22.5567 12.0391C22.5567 13.0664 21.8698 13.9359 20.9318 14.2133L20.5002 10.7583H22.1598C22.4102 11.1234 22.5567 11.5642 22.5567 12.0391Z" fill="#E39F6E"/>
<path d="M19.8384 11.0817C19.8384 11.0817 20.6265 11.8633 22.7485 11.9196C22.8826 11.9233 22.9927 11.8153 22.9927 11.6811V11.3662C22.9927 11.3662 23.7642 11.8725 25.3992 11.9194C25.5335 11.9233 25.6436 11.815 25.6436 11.6807V11.5022C25.6436 11.5022 26.2792 11.8903 28.1851 11.921C28.3179 11.9231 28.4268 11.8153 28.4268 11.6823V10.5237C28.4268 10.3722 28.3039 10.249 28.1522 10.249H20.6709C20.2111 10.2493 19.8384 10.6219 19.8384 11.0817Z" fill="#BA6F3C"/>
<path d="M11.2327 26.4292H0.439453V21.6597C0.439453 20.2464 1.58524 19.1006 2.9986 19.1006H8.67376C10.0871 19.1006 11.2327 20.2464 11.2327 21.6597V26.4292Z" fill="#4FCEB7"/>
<path d="M5.89742 20.5417C5.41562 20.5417 5.02515 20.151 5.02515 19.6694V17.2224H6.76969V19.6694C6.76969 20.151 6.37922 20.5417 5.89742 20.5417Z" fill="#E39F6E"/>
<path d="M1.28266 13.8103H10.5121L10.7554 12.6228C11.386 9.54778 9.03653 6.66797 5.8974 6.66797C2.75827 6.66797 0.409009 9.54778 1.03935 12.6228L1.28266 13.8103Z" fill="#BA6F3C"/>
<path d="M11.0269 14.275C11.0269 14.9234 10.5009 15.4494 9.8525 15.4494C9.20407 15.4494 8.6781 14.9234 8.6781 14.275C8.6781 14.1759 8.69 14.0793 8.71404 13.9875C8.84198 13.4782 9.30318 13.1006 9.8525 13.1006C10.4091 13.1006 10.8756 13.4879 10.9958 14.0079C11.0161 14.0937 11.0269 14.1832 11.0269 14.275Z" fill="#E39F6E"/>
<path d="M10.9958 14.0079C10.6644 14.1976 10.2805 14.3063 9.87243 14.3063C9.44968 14.3063 9.05348 14.1898 8.71405 13.9875C8.842 13.4782 9.3032 13.1006 9.85252 13.1006C10.4092 13.1006 10.8756 13.4879 10.9958 14.0079Z" fill="#D88852"/>
<path d="M3.11668 14.275C3.11668 14.9234 2.59094 15.4494 1.94228 15.4494C1.29363 15.4494 0.767883 14.9234 0.767883 14.275C0.767883 13.6263 1.29363 13.1006 1.94228 13.1006C2.59094 13.1006 3.11668 13.6263 3.11668 14.275Z" fill="#E39F6E"/>
<path d="M2.20117 10.9905L2.75644 15.4359C2.95466 17.0197 4.30072 18.2088 5.89741 18.2088C7.49387 18.2088 8.84016 17.0197 9.03837 15.4359L9.19264 14.2026L9.59365 10.9905H2.20117Z" fill="#F8C298"/>
<path d="M7.86328 10.9905C7.69872 11.3043 7.6051 11.6609 7.6051 12.0392C7.6051 13.0527 8.27344 13.9131 9.19264 14.2024L9.59364 10.9905H7.86328Z" fill="#E39F6E"/>
<path d="M1.51038 11.0817C1.51038 11.0817 2.29842 11.8633 4.4204 11.9196C4.55475 11.9233 4.66484 11.8153 4.66484 11.6811V11.3662C4.66484 11.3662 5.43641 11.8725 7.07132 11.9194C7.20545 11.9233 7.31554 11.815 7.31554 11.6807V11.5022C7.31554 11.5022 7.95138 11.8903 9.85706 11.921C9.99004 11.9231 10.0988 11.8153 10.0988 11.6823V10.5237C10.0988 10.3722 9.97585 10.249 9.8241 10.249H2.34282C1.883 10.2493 1.51038 10.6219 1.51038 11.0817Z" fill="#BA6F3C"/>
<path d="M22.1072 28.0454H7.89307V21.7644C7.89307 19.9031 9.40186 18.3943 11.2631 18.3943H18.7371C20.5981 18.3943 22.1072 19.9031 22.1072 21.7644V28.0454Z" fill="#A9D2F7"/>
<path d="M10.6382 20.0427V21.5011H11.5236L11.0244 23.2198L12.5732 25.2953V18.3943L10.6382 20.0427Z" fill="#5F9EEB"/>
<path d="M19.5233 20.0427V21.5011H18.638L19.1372 23.2198L17.5883 25.2953V18.3943L19.5233 20.0427Z" fill="#5F9EEB"/>
<path d="M12.5732 18.3943H17.5883V28.0454H12.5732V18.3943Z" fill="#627687"/>
<path d="M22.1069 21.7644V28.0454H20.9586V21.7644C20.9586 19.9033 19.4494 18.3943 17.5883 18.3943H18.7373C20.5984 18.3943 22.1069 19.9033 22.1069 21.7644Z" fill="#7FB7EA"/>
<path d="M15.0809 20.2919C14.4464 20.2919 13.9321 19.7776 13.9321 19.1431V15.9207H16.2294V19.1431C16.2297 19.7776 15.7151 20.2919 15.0809 20.2919Z" fill="#F8C298"/>
<path d="M9.00358 11.4272H21.1582L21.4786 9.86347C22.3088 5.81361 19.215 2.02124 15.0809 2.02124C10.9468 2.02124 7.85298 5.81383 8.68314 9.86347L9.00358 11.4272Z" fill="#FFCF64"/>
<path d="M21.8359 12.0392C21.8359 12.8934 21.1436 13.586 20.2894 13.586C19.4352 13.586 18.7428 12.8934 18.7428 12.0392C18.7428 11.185 19.4352 10.4927 20.2894 10.4927C21.1436 10.4927 21.8359 11.185 21.8359 12.0392Z" fill="#F8C298"/>
<path d="M11.419 12.0392C11.419 12.8934 10.7264 13.586 9.87218 13.586C9.01799 13.586 8.32562 12.8934 8.32562 12.0392C8.32562 11.185 9.01799 10.4927 9.87218 10.4927C10.7264 10.4927 11.419 11.185 11.419 12.0392Z" fill="#F8C298"/>
<path d="M10.4671 9.74446L10.9445 13.5677C11.2052 15.6538 12.9784 17.2193 15.0809 17.2193C17.1832 17.2193 18.9566 15.6538 19.2171 13.5677L19.6947 9.74446C19.8376 8.60142 18.9463 7.59204 17.7943 7.59204H12.3673C11.2155 7.59204 10.3243 8.60142 10.4671 9.74446Z" fill="#FFD6C0"/>
<path d="M9.81677 6.93726V9.00773C9.81677 9.20801 9.97974 9.3696 10.18 9.368C11.1232 9.35998 13.4011 9.19542 15.1179 7.89994C16.8348 9.19542 19.1124 9.35998 20.0559 9.368C20.2561 9.3696 20.4191 9.20801 20.4191 9.00773V6.93726H9.81677Z" fill="#FFCF64"/>
<path d="M27.0016 18.6613H25.5372V18.3999C26.6338 17.9696 27.479 17.0156 27.7436 15.8282C27.8844 15.8675 28.0306 15.8891 28.1806 15.8891C29.0705 15.8891 29.7944 15.1651 29.7944 14.2752C29.7944 13.8763 29.6486 13.511 29.4078 13.229L29.514 12.7112C29.8164 11.2361 29.5053 9.74698 28.6386 8.51811C28.4985 8.31967 28.2243 8.27252 28.0261 8.41236C27.8278 8.55221 27.7805 8.82641 27.9203 9.02485C28.6459 10.0532 28.9061 11.2997 28.653 12.5348L28.6147 12.7211C28.4765 12.6824 28.3309 12.6611 28.1803 12.6611C28.1721 12.6611 28.1638 12.6616 28.1556 12.6618L28.1991 12.3134C28.3428 12.2446 28.4442 12.1001 28.449 11.9298C28.4561 11.6872 28.265 11.4849 28.0224 11.478C26.5074 11.4345 25.9212 11.1519 25.8686 11.1249C25.7345 11.0372 25.5704 11.0344 25.4287 11.1102C25.2948 11.1819 25.2147 11.321 25.2051 11.4716C23.8796 11.3972 23.2374 11.0013 23.2339 10.999C23.0989 10.9104 22.9261 10.9031 22.7839 10.9797C22.6418 11.0564 22.5532 11.205 22.5532 11.3666V11.4725C22.4276 11.4659 22.3044 11.4563 22.184 11.4439C22.0962 11.1649 21.9483 10.9122 21.7556 10.7012L21.9092 9.95206C22.0639 9.1972 22.0916 8.43479 21.9998 7.69161C22.6741 7.30938 23.439 7.1075 24.2255 7.1075C25.0943 7.1075 25.9359 7.35309 26.6596 7.81727C26.7331 7.86442 26.8153 7.88685 26.8965 7.88685C27.0414 7.88685 27.1831 7.81566 27.2669 7.68474C27.398 7.48058 27.3385 7.20867 27.1343 7.07752C26.2687 6.52225 25.2628 6.22859 24.2252 6.22859C23.3861 6.22859 22.567 6.42108 21.8265 6.78844C21.577 5.83491 21.1243 4.93357 20.4818 4.14598C19.1523 2.51656 17.1839 1.58203 15.0809 1.58203C13.5435 1.58203 12.088 2.07047 10.8717 2.9947C10.6785 3.14141 10.6408 3.41722 10.7877 3.61039C10.9347 3.8038 11.2102 3.84111 11.4034 3.69439C12.4654 2.88735 13.7371 2.46071 15.0809 2.46071C16.9186 2.46071 18.6389 3.2776 19.8007 4.70171C20.9625 6.12559 21.4171 7.97497 21.0481 9.77536L20.9666 10.1725C20.7551 10.0953 20.5272 10.0532 20.2894 10.0532C20.225 10.0532 20.1612 10.0564 20.0978 10.0626L20.13 9.8042C20.3154 9.78795 20.4878 9.70876 20.6217 9.57601C20.7744 9.42471 20.8584 9.22284 20.8584 9.00792V7.98481C20.8584 7.74219 20.6617 7.54535 20.4189 7.54535C20.1763 7.54535 19.9794 7.74219 19.9794 7.98481V8.92781C19.0646 8.91156 16.9552 8.73623 15.3826 7.54924C15.2258 7.43114 15.0097 7.43114 14.8531 7.54924C13.2805 8.73623 11.1711 8.91156 10.256 8.92781V7.98481C10.256 7.74219 10.0594 7.54535 9.81657 7.54535C9.57395 7.54535 9.37712 7.74219 9.37712 7.98481V9.00792C9.37712 9.22284 9.46134 9.42471 9.61378 9.57601C9.7296 9.69068 9.87356 9.76552 10.0303 9.79436C10.0306 9.79573 10.0306 9.79734 10.0308 9.79894L10.0638 10.0624C10.0004 10.0564 9.93651 10.0535 9.87219 10.0535C9.63438 10.0535 9.40641 10.0956 9.19492 10.1725L9.11344 9.77559C8.76531 8.07682 9.13473 6.37027 10.1537 4.97042C10.2968 4.77404 10.2533 4.49938 10.0571 4.35632C9.86097 4.2135 9.58609 4.25699 9.44326 4.45314C8.91683 5.17618 8.54238 5.97087 8.32608 6.80377C7.57786 6.42657 6.74793 6.22859 5.8974 6.22859C4.26844 6.22859 2.74385 6.95255 1.71411 8.21461C0.68459 9.4769 0.281755 11.1157 0.608829 12.7115L0.714802 13.2292C0.474246 13.511 0.328447 13.8763 0.328447 14.2752C0.328447 15.1651 1.0524 15.8891 1.9423 15.8891C2.09176 15.8891 2.23825 15.8678 2.37901 15.8282C2.6436 17.0159 3.4891 17.9696 4.58567 18.4001V18.6615H2.9986C1.34515 18.6613 0 20.0064 0 21.6599V26.4294C0 26.672 0.19684 26.8688 0.439456 26.8688C0.682072 26.8688 0.878911 26.672 0.878911 26.4294V21.6599C0.878911 20.491 1.82969 19.5402 2.9986 19.5402H4.58567V19.6695C4.58567 20.3928 5.17413 20.9813 5.8974 20.9813C6.62068 20.9813 7.20913 20.3928 7.20913 19.6695V19.5402H8.17319C7.72115 20.1667 7.45358 20.9348 7.45358 21.7645V28.0455C7.45358 28.2884 7.65042 28.485 7.89304 28.485C8.13565 28.485 8.33249 28.2884 8.33249 28.0455V21.7645C8.33249 20.1486 9.6472 18.8339 11.2631 18.8339H11.3796L10.3533 19.7082C10.2551 19.7917 10.1988 19.914 10.1988 20.0426V21.5013C10.1988 21.7439 10.3954 21.9407 10.6383 21.9407H10.9383L10.6023 23.0975C10.5639 23.2298 10.5897 23.3724 10.6721 23.4829L12.1338 25.4415V28.0455C12.1338 28.2884 12.3304 28.485 12.5732 28.485C12.8159 28.485 13.0127 28.2884 13.0127 28.0455V18.8339H13.4924V19.1433C13.4924 20.019 14.2049 20.7313 15.0807 20.7313C15.9564 20.7313 16.6689 20.019 16.6689 19.1433V18.8339H17.1488V28.0455C17.1488 28.2884 17.3455 28.485 17.5883 28.485C17.8309 28.485 18.0278 28.2884 18.0278 28.0455V25.4415L19.4892 23.4829C19.5716 23.3724 19.5977 23.2298 19.559 23.0975L19.223 21.9407H19.5233C19.7659 21.9407 19.9627 21.7439 19.9627 21.5013V20.0428C19.9627 19.914 19.9062 19.7917 19.8082 19.7082L18.7831 18.835C20.3777 18.86 21.6675 20.1641 21.6675 21.7645V23.4125C21.6675 23.6551 21.8643 23.8519 22.1069 23.8519C22.3495 23.8519 22.5464 23.6551 22.5464 23.4125V21.7645C22.5464 20.9348 22.2788 20.1667 21.8268 19.5402H22.9135V19.6695C22.9135 20.3928 23.502 20.9813 24.2252 20.9813C24.9485 20.9813 25.537 20.3928 25.537 19.6695V19.5402H27.0016C28.1703 19.5402 29.121 20.4912 29.121 21.6599V26.4294C29.121 26.672 29.3179 26.8688 29.5605 26.8688C29.8033 26.8688 29.9999 26.672 29.9999 26.4294V21.6599C30.0002 20.0064 28.655 18.6613 27.0016 18.6613ZM28.1803 13.54C28.5857 13.54 28.9153 13.8699 28.9153 14.275C28.9153 14.6803 28.5857 15.0099 28.1803 15.0099C28.0718 15.0099 27.967 14.9861 27.8709 14.9413L28.0441 13.5531C28.0888 13.5448 28.1343 13.54 28.1803 13.54ZM22.7345 12.359C22.7405 12.3592 22.7464 12.3592 22.7526 12.3592C22.9288 12.3592 23.101 12.2896 23.2273 12.1667C23.276 12.1191 23.3168 12.0658 23.3486 12.0081C23.7842 12.1635 24.4598 12.332 25.3843 12.3588C25.5658 12.3636 25.7466 12.2942 25.8775 12.167C25.9034 12.1418 25.927 12.115 25.9483 12.0869C26.2495 12.1736 26.6921 12.2656 27.3126 12.3185L26.9302 15.3812C26.7601 16.7423 25.5974 17.7691 24.2255 17.7691C22.8535 17.7691 21.6906 16.7423 21.5205 15.3812L21.3154 13.7389C21.8107 13.4391 22.1648 12.9287 22.2536 12.3329C22.4109 12.3457 22.5713 12.3546 22.7345 12.359ZM19.5382 14.2166C19.5572 14.1443 19.5743 14.071 19.5897 13.9971C19.6016 13.9683 19.6155 13.9406 19.6311 13.9133C19.8403 13.9868 20.0616 14.0255 20.2894 14.0255C20.3484 14.0255 20.4068 14.0223 20.4644 14.0173L20.58 14.9415C20.4837 14.9863 20.3788 15.0101 20.2704 15.0101C19.865 15.0101 19.5354 14.6803 19.5354 14.2752C19.5354 14.2555 19.5368 14.2361 19.5382 14.2166ZM20.2894 10.9321C20.8998 10.9321 21.3965 11.4288 21.3965 12.0392C21.3965 12.6497 20.8998 13.1466 20.2894 13.1466C20.0902 13.1466 19.9 13.0939 19.7316 12.9951L19.9838 10.9756C20.0824 10.9472 20.1848 10.9321 20.2894 10.9321ZM15.118 8.4396C16.5027 9.37299 18.1516 9.6758 19.2486 9.76895L18.781 13.5133C18.5485 15.3754 16.9577 16.7799 15.0809 16.7799C13.204 16.7799 11.6133 15.3754 11.3808 13.5133L10.9138 9.77491C12.0097 9.6893 13.7021 9.39404 15.118 8.4396ZM9.65887 14.0138C9.72891 14.0214 9.80009 14.0255 9.87219 14.0255C10.0862 14.0255 10.2975 13.9902 10.498 13.9236C10.5563 14.0303 10.5875 14.1502 10.5875 14.275C10.5875 14.6803 10.2579 15.0099 9.85251 15.0099C9.74333 15.0099 9.63873 14.9866 9.54283 14.9417L9.65887 14.0138ZM10.1777 10.9752L10.4302 12.9955C10.262 13.0944 10.0722 13.1466 9.87219 13.1466C9.26176 13.1466 8.76508 12.6497 8.76508 12.0392C8.76508 11.4288 9.26176 10.9321 9.87219 10.9321C9.97679 10.9321 10.0791 10.9468 10.1777 10.9752ZM2.39526 8.77011C3.25724 7.71335 4.53372 7.1075 5.8974 7.1075C6.69644 7.1075 7.47304 7.31533 8.15534 7.70969C8.06767 8.44464 8.09812 9.19881 8.25261 9.95183L8.40619 10.701C8.25009 10.8719 8.12375 11.0702 8.03449 11.2876C7.7168 11.2111 7.56619 11.1379 7.54079 11.1249C7.40666 11.0372 7.24255 11.0344 7.10087 11.1102C6.96698 11.1819 6.88687 11.321 6.87725 11.4716C5.55156 11.397 4.90954 11.0013 4.90588 10.999C4.77107 10.9104 4.59826 10.9031 4.45613 10.9797C4.31399 11.0564 4.22541 11.205 4.22541 11.3666V11.4725C3.26319 11.4224 2.63216 11.2132 2.26503 11.0404C2.04553 10.9369 1.78369 11.031 1.68023 11.2507C1.58158 11.4604 1.66329 11.7083 1.86219 11.8204L1.96725 12.6618C1.95901 12.6618 1.95077 12.6614 1.94253 12.6614C1.79193 12.6614 1.64636 12.6824 1.50811 12.7211L1.46989 12.5348C1.19591 11.1988 1.53329 9.82663 2.39526 8.77011ZM1.20736 14.2752C1.20736 13.8699 1.53718 13.5403 1.9423 13.5403C1.98854 13.5403 2.03386 13.5446 2.07849 13.5529L2.25198 14.9415C2.15562 14.9863 2.05079 15.0101 1.9423 15.0101C1.53718 15.0101 1.20736 14.6803 1.20736 14.2752ZM3.19269 15.3812L2.78894 12.1491C3.21856 12.2571 3.75391 12.3416 4.40669 12.359C4.41264 12.3592 4.41859 12.3592 4.42477 12.3592C4.60101 12.3592 4.77313 12.2896 4.89947 12.1667C4.94823 12.1194 4.98874 12.0658 5.02078 12.0081C5.45612 12.1635 6.13201 12.332 7.05647 12.3588C7.2382 12.3636 7.41879 12.2942 7.54971 12.167C7.57535 12.142 7.59869 12.1155 7.61998 12.0873C7.69963 12.1104 7.78958 12.1338 7.89006 12.1567C7.92851 12.8124 8.28649 13.3832 8.81017 13.7163L8.60235 15.3812C8.43229 16.7426 7.26956 17.7691 5.89763 17.7691C4.52571 17.7691 3.36275 16.7426 3.19269 15.3812ZM5.8974 20.1023C5.65868 20.1023 5.46459 19.908 5.46459 19.6695V18.621C5.60672 18.6382 5.75115 18.648 5.8974 18.648C6.04366 18.648 6.18809 18.6384 6.33022 18.621V19.6695C6.33022 19.908 6.13613 20.1023 5.8974 20.1023ZM11.5076 23.1325L11.9456 21.624C11.9843 21.4912 11.9582 21.3479 11.8751 21.2374C11.7921 21.1268 11.6618 21.0618 11.5236 21.0618H11.0777V20.2459L12.1338 19.3461V23.9718L11.5076 23.1325ZM11.2631 17.955C10.4286 17.955 9.65612 18.2255 9.02784 18.6826C8.91065 18.6688 8.79186 18.6613 8.67376 18.6613H7.20913V18.3999C8.30594 17.9696 9.15144 17.0152 9.4158 15.8275C9.55725 15.8673 9.70419 15.8891 9.85251 15.8891C10.3414 15.8891 10.7799 15.6705 11.0759 15.326C11.6133 16.2688 12.4714 16.9982 13.4927 17.375V17.955H11.2631ZM15.0809 19.8526C14.6897 19.8526 14.3716 19.5343 14.3716 19.1433V17.6029C14.6034 17.6391 14.8401 17.6588 15.0809 17.6588C15.3217 17.6588 15.5583 17.6391 15.7902 17.6029V19.1433C15.7902 19.5343 15.472 19.8526 15.0809 19.8526ZM19.0838 21.0618H18.638C18.4997 21.0618 18.3697 21.1268 18.2866 21.2374C18.2035 21.3479 18.1774 21.4912 18.2159 21.624L18.6542 23.1325L18.0278 23.9718V19.3461L19.0838 20.2459V21.0618ZM21.3264 18.6613C21.2081 18.6613 21.0895 18.6688 20.9723 18.6826C20.3441 18.2255 19.5718 17.955 18.7371 17.955H16.6691V17.3747C17.681 17.0017 18.5327 16.2823 19.071 15.3519C19.3667 15.681 19.7943 15.8888 20.2704 15.8888C20.42 15.8888 20.5663 15.8675 20.7073 15.8279C20.9719 17.0156 21.8171 17.9696 22.9137 18.3999V18.6613H21.3264ZM24.2255 20.1023C23.9867 20.1023 23.7926 19.908 23.7926 19.6695V18.621C23.9348 18.6382 24.079 18.648 24.2255 18.648C24.3717 18.648 24.5159 18.6384 24.6583 18.621V19.6695C24.6583 19.908 24.464 20.1023 24.2255 20.1023Z" fill="black"/>
<path d="M22.0618 14.0336L22.0671 14.2197C22.0735 14.4582 22.269 14.6472 22.5061 14.6472C22.5102 14.6472 22.5141 14.647 22.5182 14.647C22.7608 14.6404 22.9522 14.4383 22.9455 14.1957L22.9405 14.0096C22.9339 13.767 22.732 13.5747 22.4891 13.5822C22.2465 13.5889 22.0552 13.791 22.0618 14.0336Z" fill="black"/>
<path d="M25.9494 14.6472C25.9533 14.6472 25.9574 14.647 25.9615 14.647C26.2041 14.6404 26.3955 14.4383 26.3889 14.1957L26.3838 14.0096C26.3772 13.767 26.1753 13.5747 25.9325 13.5822C25.6899 13.5889 25.4985 13.791 25.5051 14.0336L25.5102 14.2197C25.5168 14.4582 25.7121 14.6472 25.9494 14.6472Z" fill="black"/>
<path d="M22.8229 15.5803C23.1479 16.0291 23.6722 16.2971 24.2255 16.2971C24.7787 16.2971 25.303 16.0291 25.6281 15.5803C25.7702 15.3837 25.7262 15.109 25.5296 14.9666C25.3333 14.8243 25.0584 14.8682 24.916 15.0648C24.7558 15.2861 24.4976 15.4182 24.2255 15.4182C23.9531 15.4182 23.6949 15.2861 23.5347 15.0648C23.3923 14.8682 23.1177 14.8243 22.921 14.9666C22.7244 15.109 22.6805 15.3837 22.8229 15.5803Z" fill="black"/>
<path d="M27.4763 21.9951C27.2334 21.9951 27.0368 22.1917 27.0368 22.4346V26.4293C27.0368 26.6719 27.2334 26.8687 27.4763 26.8687C27.7189 26.8687 27.9157 26.6719 27.9157 26.4293V22.4346C27.9157 22.1917 27.7189 21.9951 27.4763 21.9951Z" fill="black"/>
<path d="M4.61771 14.1957L4.61245 14.0096C4.60581 13.767 4.40485 13.5747 4.16132 13.5822C3.9187 13.5889 3.72736 13.791 3.73399 14.0336L3.73903 14.2197C3.74567 14.4582 3.9409 14.6472 4.17803 14.6472C4.18215 14.6472 4.18627 14.647 4.19039 14.647C4.433 14.6404 4.62435 14.4383 4.61771 14.1957Z" fill="black"/>
<path d="M7.62136 14.6472C7.62548 14.6472 7.6296 14.647 7.63349 14.647C7.87633 14.6404 8.06745 14.4383 8.06081 14.1957L8.05577 14.0096C8.04914 13.767 7.84818 13.5747 7.60442 13.5822C7.3618 13.5889 7.17069 13.791 7.1771 14.0336L7.18236 14.2197C7.18877 14.4582 7.38424 14.6472 7.62136 14.6472Z" fill="black"/>
<path d="M7.30001 15.5803C7.44238 15.3837 7.39843 15.109 7.20182 14.9666C7.00521 14.8243 6.73032 14.8682 6.58796 15.0648C6.42774 15.2861 6.16956 15.4182 5.89742 15.4182C5.62528 15.4182 5.36687 15.2861 5.20665 15.0648C5.06451 14.8682 4.78963 14.8243 4.59302 14.9666C4.3964 15.109 4.35246 15.3837 4.49482 15.5803C4.81984 16.0291 5.34421 16.2971 5.89742 16.2971C6.45063 16.2971 6.975 16.0291 7.30001 15.5803Z" fill="black"/>
<path d="M2.52393 21.9951C2.28131 21.9951 2.08447 22.1917 2.08447 22.4346V26.4293C2.08447 26.6719 2.28131 26.8687 2.52393 26.8687C2.76677 26.8687 2.96338 26.6719 2.96338 26.4293V22.4346C2.96338 22.1917 2.76677 21.9951 2.52393 21.9951Z" fill="black"/>
<path d="M22.1071 24.8479C21.8643 24.8479 21.6677 25.0445 21.6677 25.2874V28.0454C21.6677 28.2882 21.8643 28.4849 22.1071 28.4849C22.3498 28.4849 22.5466 28.2882 22.5466 28.0454V25.2874C22.5466 25.0445 22.3498 24.8479 22.1071 24.8479Z" fill="black"/>
<path d="M12.8168 12.3901H12.8289C13.0715 12.3835 13.2629 12.1814 13.2562 11.9388L13.2496 11.6936C13.2429 11.4508 13.0392 11.2592 12.7982 11.2663C12.5556 11.2729 12.3643 11.475 12.3709 11.7177L12.3775 11.9628C12.3842 12.2013 12.5796 12.3901 12.8168 12.3901Z" fill="black"/>
<path d="M17.3512 12.3901H17.3635C17.6062 12.3835 17.7973 12.1814 17.7906 11.9388L17.784 11.6936C17.7774 11.4508 17.5732 11.2592 17.3326 11.2663C17.09 11.2729 16.8987 11.475 16.9053 11.7177L16.9122 11.9628C16.9186 12.2013 17.1141 12.3901 17.3512 12.3901Z" fill="black"/>
<path d="M15.0809 14.5629C15.7648 14.5629 16.4132 14.2315 16.8151 13.6765C16.9573 13.4798 16.9133 13.2052 16.7169 13.0628C16.5203 12.9205 16.2454 12.9644 16.1031 13.161C15.8662 13.4885 15.4839 13.684 15.0809 13.684C14.6778 13.684 14.2956 13.4885 14.0585 13.161C13.9161 12.9644 13.6414 12.9205 13.4448 13.0628C13.2482 13.2052 13.2043 13.4798 13.3466 13.6765C13.7486 14.2315 14.3967 14.5629 15.0809 14.5629Z" fill="black"/>
<path d="M10.6383 24.1306C10.3956 24.1306 10.1988 24.3272 10.1988 24.5701V28.0454C10.1988 28.2883 10.3956 28.4849 10.6383 28.4849C10.8809 28.4849 11.0777 28.2883 11.0777 28.0454V24.5701C11.0777 24.3272 10.8809 24.1306 10.6383 24.1306Z" fill="black"/>
<path d="M19.3619 24.1306C19.1193 24.1306 18.9225 24.3272 18.9225 24.5701V28.0454C18.9225 28.2883 19.1193 28.4849 19.3619 28.4849C19.6046 28.4849 19.8014 28.2883 19.8014 28.0454V24.5701C19.8014 24.3272 19.6046 24.1306 19.3619 24.1306Z" fill="black"/>
</svg>
