<svg width="30" height="30" viewBox="0 0 30 30" fill="none" xmlns="http://www.w3.org/2000/svg">
<path d="M12.0479 5.5752C10.9392 6.93699 9.46129 7.91373 7.77386 8.39985C7.22218 8.55874 6.9038 9.13473 7.0627 9.68635C7.21257 10.2066 7.73337 10.5193 8.25488 10.42C8.28634 10.414 8.31792 10.4065 8.34926 10.3975C9.20789 10.1501 10.0228 9.80049 10.7804 9.35767L12.0479 5.5752Z" fill="#00CCF2"/>
<path d="M15.0061 11.9677L16.1378 8.73492C16.4792 8.788 16.8222 8.81519 17.1639 8.81519C18.7046 8.81519 20.2179 8.28179 21.4344 7.27142L21.5739 7.15547C22.0074 6.79532 22.0966 6.15154 21.7521 5.70545C21.3905 5.23714 20.7159 5.16555 20.2646 5.54052L20.106 5.67234C19.8352 5.89727 19.5431 6.08786 19.2359 6.24283C18.0378 6.84723 16.598 6.53431 15.6852 5.55077C15.2385 5.06952 14.5999 4.76392 13.8804 4.76392C12.7586 4.76392 11.7784 5.52171 11.496 6.60737L10.1016 11.9677H15.0061Z" fill="#00CCF2"/>
<path d="M10.1015 11.9675L6.00465 22.7102C5.73854 23.4079 6.19208 24.1715 6.93212 24.2717L6.95948 24.2754C7.46599 24.3439 7.95392 24.0871 8.18119 23.6364C9.33979 21.3392 12.7601 14.5768 12.7601 14.5768H14.1491L13.4407 19.0303C13.3359 19.6895 13.8452 20.2863 14.5127 20.2863C15.0001 20.2863 15.4277 19.9614 15.5584 19.4919L16.8897 14.7083C17.273 13.3309 16.2373 11.9675 14.8075 11.9675H14.1734H10.1015Z" fill="#FFBE52"/>
<path d="M29.4116 13.032L24.3621 14.0482L25.4596 15.1457L21.9498 18.6554L19.46 16.1655L7.89197 27.7337L9.57243 29.4141L19.46 19.5265L21.9498 22.0164L27.1401 16.8262L28.3953 18.0814L29.4116 13.032Z" fill="#FF6371"/>
<path d="M29.4116 13.032L24.3621 14.0482L25.4596 15.1457L21.9498 18.6554L19.46 16.1655L7.89197 27.7337L9.57243 29.4141L19.46 19.5265L21.9498 22.0164L27.1401 16.8262L28.3953 18.0814L29.4116 13.032Z" fill="#FF6371"/>
<path d="M15.4005 4.76394C16.5543 4.76394 17.4895 3.82866 17.4895 2.67494C17.4895 1.52122 16.5543 0.585938 15.4005 0.585938C14.2468 0.585938 13.3116 1.52122 13.3116 2.67494C13.3116 3.82866 14.2468 4.76394 15.4005 4.76394Z" fill="#FED2A4"/>
<path d="M5.14157 16.3645L0.811472 12.0345C0.514014 11.737 0.514014 11.2547 0.811472 10.9573L3.95461 7.81416C4.25207 7.5167 4.73432 7.5167 5.03178 7.81416L9.36188 12.1443C9.65933 12.4417 9.65933 12.924 9.36188 13.2214L6.21874 16.3645C5.92128 16.6619 5.43903 16.6619 5.14157 16.3645Z" fill="#FF9357"/>
<path d="M4.4454 12.7668L4.26624 12.5877C3.9515 12.2729 3.9515 11.7627 4.26624 11.448L5.01524 10.699L6.33408 12.0178L5.58508 12.7668C5.27034 13.0815 4.76009 13.0815 4.4454 12.7668Z" fill="white"/>
<path d="M29.8259 12.6177C29.6872 12.479 29.4881 12.419 29.296 12.4576L24.2465 13.4738C24.0349 13.5165 23.8637 13.6721 23.8013 13.8787C23.7388 14.0855 23.7951 14.3098 23.9478 14.4625L24.6309 15.1457L21.9498 17.8268L19.8742 15.7513C19.7643 15.6414 19.6153 15.5797 19.4599 15.5797C19.3045 15.5797 19.1555 15.6414 19.0456 15.7513L16.4988 18.2982L17.4541 14.8654C17.6864 14.031 17.519 13.1568 16.9951 12.467C16.6741 12.0446 16.2504 11.7331 15.7714 11.5547L16.5351 9.37306C16.7458 9.39157 16.956 9.401 17.1639 9.401C18.8557 9.401 20.5052 8.80468 21.8086 7.72201L21.9483 7.60606C22.6355 7.03511 22.7529 6.0429 22.2157 5.34733C21.9433 4.99456 21.5497 4.77333 21.1074 4.72446C20.6649 4.67554 20.2325 4.80538 19.8901 5.08983L19.7315 5.22159C19.4978 5.4157 19.2422 5.58332 18.9719 5.71966C18.0684 6.17537 16.9402 5.97242 16.1906 5.2305C17.281 4.89273 18.0754 3.8748 18.0754 2.67478C18.0755 1.19991 16.8755 0 15.4006 0C13.9256 0 12.7257 1.19991 12.7257 2.67484C12.7257 3.26178 12.9161 3.80479 13.2379 4.24632C12.6293 4.37732 12.0817 4.69107 11.6627 5.13465C11.6382 5.15609 11.6148 5.17929 11.5936 5.20542C10.5607 6.47412 9.18377 7.38413 7.61164 7.83696C7.18599 7.95965 6.8491 8.24228 6.64691 8.60061L5.44606 7.39977C4.92064 6.8744 4.06582 6.87446 3.54033 7.39977L1.96879 8.97137L0.397249 10.5429C0.142679 10.7974 0.00253296 11.1358 0.00253296 11.4958C0.00253296 11.8558 0.142737 12.1941 0.39719 12.4487L4.72723 16.7787C4.9818 17.0333 5.32016 17.1734 5.68013 17.1734C6.04016 17.1734 6.37851 17.0332 6.63302 16.7787L8.26022 15.1515L7.48866 17.1747C7.37336 17.4771 7.52499 17.8157 7.82731 17.931C7.89603 17.9571 7.96658 17.9696 8.036 17.9696C8.272 17.9696 8.49446 17.8259 8.58358 17.5923L10.5052 12.5536H14.1735H14.8076C15.3044 12.5536 15.7615 12.7804 16.062 13.176C16.3625 13.5715 16.4585 14.0728 16.3253 14.5513L14.9939 19.3349C14.9341 19.5501 14.7362 19.7005 14.5127 19.7005C14.3122 19.7005 14.1886 19.5907 14.1327 19.5252C14.0769 19.4598 13.9879 19.3204 14.0193 19.1225L14.7277 14.669C14.7547 14.4996 14.706 14.327 14.5947 14.1966C14.4834 14.0662 14.3205 13.9911 14.1491 13.9911H12.7601C12.5391 13.9911 12.3369 14.1153 12.2372 14.3125C12.203 14.3801 8.80358 21.1015 7.65804 23.3727C7.54338 23.6001 7.29409 23.7299 7.03846 23.6949L7.01069 23.6912C6.83627 23.6676 6.68476 23.5673 6.59482 23.416C6.50489 23.2646 6.48936 23.0835 6.55211 22.9191L6.91314 21.9725C7.02844 21.6702 6.87681 21.3317 6.57449 21.2163C6.27223 21.101 5.93364 21.2527 5.81828 21.5549L5.45725 22.5016C5.26631 23.0023 5.31377 23.5537 5.58744 24.0144C5.86111 24.4751 6.32262 24.7806 6.8532 24.8524L6.88097 24.8561C6.9613 24.8671 7.04133 24.8723 7.12084 24.8723C7.78419 24.8723 8.40113 24.5016 8.70433 23.9004C9.70492 21.9166 12.4262 16.5354 13.1203 15.1628H13.4627L12.8621 18.9384C12.7852 19.4222 12.9235 19.9134 13.2415 20.286C13.4461 20.5256 13.7111 20.6991 14.0044 20.7927L7.47771 27.3194C7.36785 27.4293 7.3061 27.5783 7.3061 27.7336C7.3061 27.889 7.36785 28.0381 7.47771 28.1479L9.15822 29.8284C9.27265 29.9428 9.42258 30 9.57251 30C9.72244 30 9.87237 29.9428 9.98679 29.8284L13.2175 26.5977C13.4463 26.3689 13.4463 25.9979 13.2175 25.7691C12.9886 25.5404 12.6177 25.5404 12.3888 25.7691L9.57251 28.5855L8.72062 27.7336L19.46 16.9941L21.5356 19.0696C21.6455 19.1795 21.7945 19.2412 21.9499 19.2412C22.1053 19.2412 22.2543 19.1795 22.3642 19.0696L25.8739 15.5599C26.1027 15.3311 26.1027 14.9601 25.8739 14.7313L25.5494 14.4068L28.6634 13.7801L28.0367 16.8941L27.5544 16.4119C27.3256 16.1831 26.9547 16.1831 26.7258 16.4119L21.9498 21.1878L19.8743 19.1122C19.6454 18.8835 19.2745 18.8835 19.0456 19.1122L15.7031 22.4548C15.4743 22.6836 15.4743 23.0546 15.7031 23.2834C15.9319 23.5122 16.3028 23.5122 16.5317 23.2834L19.4599 20.3552L21.5355 22.4308C21.7644 22.6595 22.1352 22.6595 22.3641 22.4308L27.1401 17.6548L27.9811 18.4958C28.1338 18.6485 28.3582 18.7049 28.5648 18.6423C28.7715 18.58 28.9272 18.4088 28.9698 18.1971L29.986 13.1476C30.0247 12.9553 29.9646 12.7564 29.8259 12.6177ZM15.4006 1.17179C16.2294 1.17179 16.9036 1.84609 16.9036 2.67484C16.9036 3.50364 16.2293 4.17794 15.4006 4.17794C14.5718 4.17794 13.8975 3.50364 13.8975 2.67484C13.8975 1.84609 14.5718 1.17179 15.4006 1.17179ZM9.60303 11.5567L8.89 10.8437C9.22865 10.7332 9.56126 10.6068 9.8869 10.4655L9.60303 11.5567ZM7.6257 9.52439C7.55645 9.28406 7.69572 9.03224 7.93605 8.96299C8.8992 8.68551 9.79755 8.2571 10.6069 7.69764L10.276 8.96961C9.61739 9.33357 8.91613 9.62464 8.18693 9.83468C8.17339 9.83855 8.15922 9.84195 8.14521 9.84464C8.03712 9.86521 7.92896 9.8437 7.83815 9.79191L7.66654 9.6203C7.64961 9.59036 7.63555 9.55849 7.6257 9.52439ZM4.36884 8.22834C4.40312 8.19406 4.44817 8.17696 4.49317 8.17696C4.53816 8.17696 4.58322 8.19406 4.61744 8.22834L6.75313 10.364C6.85221 10.4993 6.97032 10.6173 7.10338 10.7143L8.94754 12.5584C9.01608 12.6269 9.01608 12.7385 8.94754 12.807L7.79028 13.9642L6.50325 12.6772L6.74839 12.4321C6.97718 12.2033 6.97718 11.8323 6.74839 11.6034L5.42954 10.2846C5.20069 10.0559 4.82982 10.0559 4.60091 10.2846L4.35578 10.5297L3.21159 9.38554L4.36884 8.22834ZM5.17081 12.3525C5.11474 12.4086 5.0493 12.417 5.01526 12.417C4.98127 12.417 4.91583 12.4086 4.85976 12.3526V12.3525L4.68054 12.1733C4.62452 12.1173 4.61609 12.0518 4.61609 12.0178C4.61609 11.9838 4.62452 11.9184 4.68059 11.8623L5.01526 11.5276L5.50547 12.0178L5.17081 12.3525ZM5.8044 15.9502C5.7618 15.9927 5.71335 16.0016 5.68013 16.0016C5.64697 16.0016 5.5984 15.9927 5.55586 15.9501L1.22582 11.6201C1.18322 11.5775 1.17432 11.529 1.17432 11.4958C1.17432 11.4626 1.18322 11.4141 1.22582 11.3715L2.38302 10.2143L3.58199 11.4132C3.49205 11.5994 3.4443 11.8049 3.4443 12.0178C3.4443 12.3896 3.58913 12.7391 3.85197 13.002L4.03113 13.1811V13.1811C4.29396 13.444 4.64351 13.5888 5.01526 13.5888C5.22817 13.5888 5.4337 13.5411 5.6199 13.4511L6.96171 14.7929L5.8044 15.9502ZM14.1734 11.3818H10.8594L12.063 6.75482C12.2782 5.92754 13.0255 5.34979 13.8803 5.34979C14.4084 5.34979 14.8969 5.5627 15.2557 5.94933C16.3565 7.13541 18.1018 7.47119 19.4997 6.76595C19.8488 6.58989 20.1788 6.37364 20.4804 6.12299L20.639 5.99122C20.7346 5.91178 20.8552 5.87533 20.9788 5.88928C21.1022 5.90287 21.2121 5.96474 21.2884 6.06358C21.4356 6.25417 21.3957 6.54185 21.1996 6.70478L21.06 6.82073C19.9665 7.7291 18.5828 8.22933 17.1639 8.22933C16.8558 8.22933 16.5409 8.20467 16.2278 8.15598C15.9484 8.11215 15.6782 8.27457 15.5848 8.54132L14.5904 11.3818H14.1734Z" fill="black"/>
<path d="M14.4713 23.9514C14.3172 23.9514 14.1661 24.014 14.0571 24.1231C13.9481 24.232 13.8854 24.3832 13.8854 24.5373C13.8854 24.692 13.9481 24.8426 14.0571 24.9515C14.1661 25.061 14.3172 25.1232 14.4713 25.1232C14.6254 25.1232 14.7766 25.061 14.8855 24.9515C14.9945 24.8426 15.0572 24.6919 15.0572 24.5373C15.0572 24.3832 14.9945 24.232 14.8855 24.1231C14.7766 24.014 14.6254 23.9514 14.4713 23.9514Z" fill="black"/>
<path d="M7.19982 20.163C7.35391 20.163 7.50507 20.1003 7.61404 19.9913C7.72296 19.8824 7.78571 19.7312 7.78571 19.5771C7.78571 19.423 7.72302 19.2719 7.61404 19.1629C7.50448 19.0539 7.35391 18.9912 7.19982 18.9912C7.04573 18.9912 6.89457 19.0538 6.785 19.1629C6.67609 19.2719 6.61392 19.423 6.61392 19.5771C6.61392 19.7312 6.67609 19.8824 6.785 19.9913C6.89457 20.1002 7.04514 20.163 7.19982 20.163Z" fill="black"/>
</svg>
